<svg width="80" height="80" viewBox="0 0 80 80" fill="none" xmlns="http://www.w3.org/2000/svg">
<g clip-path="url(#clip0_1865_4335)">
<path fill-rule="evenodd" clip-rule="evenodd" d="M16.3001 57.2827C16.0312 55.9754 14.962 55.6292 13.7655 55.518C9.9003 55.159 9.21425 58.0542 9.21425 59.2778C9.21425 61.3691 9.82393 63.0998 13.619 63.0998C14.3187 63.0998 16.2511 62.3776 16.2511 61.2048H21.7092C21.4892 64.684 15.6522 65.5182 13.1068 65.5182C7.83219 65.5182 3.31664 64.5341 3.53494 59.3251C3.69058 55.6068 7.19553 52.9983 14.1668 53.161C18.0532 53.2519 21.7856 54.4663 21.8018 57.2831L16.3001 57.2827ZM70.9673 57.2827C70.6992 55.9754 69.6289 55.6292 68.4327 55.518C64.5671 55.159 63.8819 58.0542 63.8819 59.2778C63.8819 61.3691 64.4916 63.0998 68.2866 63.0998C68.9864 63.0998 70.918 62.3776 70.918 61.2048H76.3765C76.1577 64.684 70.3195 65.5182 67.7733 65.5182C62.4986 65.5182 57.9826 64.5341 58.2018 59.3251C58.3574 55.6068 61.8632 52.9983 68.8328 53.161C72.7196 53.2519 76.4524 54.4663 76.4686 57.2831L70.9673 57.2827ZM22.7758 53.4096H29.8613L35.9066 61.9053H35.9552V53.4096H40.4965V65.2061H33.7086L27.3665 56.7104H27.3167V65.2061H22.7758V53.4096ZM41.8981 53.4096H50.5042C54.6408 53.4096 57.0733 54.568 57.0733 56.3173C57.0733 57.3508 56.0552 58.6266 53.7846 59.0022V59.0354C56.518 59.1985 57.5282 60.9313 57.5282 61.9697C57.5282 64.049 55.1554 65.2065 50.5295 65.2065H41.8981V53.4096ZM46.8801 57.9924H48.307C50.5046 57.9924 51.6704 57.8214 51.6704 56.9063C51.6704 55.9264 50.7009 55.5989 48.7228 55.5989H46.8805L46.8801 57.9924ZM46.8801 62.7337H48.307C50.9553 62.7337 51.9273 62.4557 51.9273 61.5414C51.9273 60.5606 50.7009 60.2332 48.7228 60.2332H46.8805L46.8801 62.7337Z" fill="#010010" fill-opacity="0.6"/>
<path fill-rule="evenodd" clip-rule="evenodd" d="M70.2993 51.4818C69.1385 51.9956 67.8535 52.2243 66.4848 52.2243L11.6345 52.1811C8.53295 51.9387 5.48702 49.3797 4.62085 46.3204C3.69906 43.2612 4.59304 40.1016 6.61882 37.8716C8.57487 35.8562 11.0895 35.0133 13.8835 35.3271C11.2568 33.5399 10.1532 30.5803 10.5309 27.407C10.88 24.6487 12.8775 21.9605 15.4345 20.8607C18.3547 19.545 22.0423 20.2601 24.3336 22.4756C23.8589 20.8607 23.6073 18.5444 24.2643 16.8863C25.0463 14.2704 27.5887 11.9404 30.1736 11.3967C33.6246 10.6534 36.9079 11.9545 38.8909 14.9137C39.2686 15.4711 39.4923 16.1003 39.7853 16.6863C40.7785 13.8554 43.6414 11.5108 46.5483 11.2108C49.5514 10.8248 52.3878 12.1118 54.2741 14.6418C55.7404 16.7436 56.243 19.8742 55.2938 22.4046H55.4059C57.5848 20.4465 60.8822 19.7318 63.6904 20.8179C66.3727 21.704 68.6496 24.5628 69.0136 27.3792C69.4182 30.4957 68.3561 33.2258 65.9959 35.242C69.5722 35.0274 72.9672 36.9287 74.4343 40.2589C75.7201 43.1616 75.3436 47.0492 73.1635 49.4083C72.2836 50.2952 71.3465 51.0385 70.2993 51.4818Z" fill="white"/>
<path fill-rule="evenodd" clip-rule="evenodd" d="M64.4856 35.3277L44.1992 48.8938L51.0311 32.6544L54.2729 25.0917C55.5861 22.6476 58.0576 21.0896 60.7553 21.0464C63.3397 21.0464 65.6311 22.2902 67.0837 24.5202C68.5795 26.7502 68.6629 30.3958 67.1671 32.6544C66.4977 33.7119 65.5053 34.6553 64.4856 35.3277Z" fill="#010010" fill-opacity="0.6"/>
<path fill-rule="evenodd" clip-rule="evenodd" d="M54.3845 22.5187L44.3532 46.2345L43.9058 43.6472L40.8885 24.2054C40.7619 23.0189 41.2508 22.0182 42.2 21.3608L43.6397 20.5034C43.724 20.2029 43.3048 20.1028 43.1089 20.0028L40.2871 19.9742C40.1057 17.1723 41.335 14.6282 43.7094 13.0988C45.5543 11.8972 48.3624 11.5831 50.4164 12.5551C53.085 13.6416 54.9419 16.4867 54.9842 19.3882C54.9705 20.4602 54.7892 21.5613 54.3845 22.5187Z" fill="#010010" fill-opacity="0.6"/>
<path fill-rule="evenodd" clip-rule="evenodd" d="M35.1206 46.3206L25.2428 22.5475C24.1803 20.003 24.6277 16.6578 26.4439 14.5988C28.3859 12.4407 31.1238 11.5255 33.9465 12.2551C36.3354 12.8407 38.5708 15.1284 39.158 17.5725C39.4373 18.4877 39.395 19.5879 39.3394 20.5886L35.1206 46.3206Z" fill="#010010" fill-opacity="0.6"/>
<path fill-rule="evenodd" clip-rule="evenodd" d="M14.0071 34.4696C11.9809 32.7115 11.0733 30.3666 11.3663 27.6502C11.6597 24.9056 13.8253 22.2183 16.4098 21.3894C19.0643 20.5602 21.9558 21.2176 23.8845 23.2048C24.6946 23.9768 25.1977 24.8915 25.6164 25.8353L35.1593 48.9364L14.0071 34.4696Z" fill="#010010" fill-opacity="0.6"/>
<path fill-rule="evenodd" clip-rule="evenodd" d="M11.8416 51.3466C9.20198 51.0465 7.16707 49.6242 5.92654 47.2037C4.66982 44.7604 4.99645 41.2937 6.68605 39.1272C8.52714 36.9213 11.1908 35.8115 13.8748 36.356C14.9689 36.5324 15.8861 37.003 16.7485 37.5451L37.2847 51.3524L11.8416 51.3466Z" fill="#010010" fill-opacity="0.6"/>
<path fill-rule="evenodd" clip-rule="evenodd" d="M67.5942 51.3466C70.2351 51.0465 72.2683 49.6242 73.5101 47.2037C74.7664 44.7604 74.4398 41.2937 72.7506 39.1272C70.9095 36.9213 68.2454 35.8115 65.5614 36.356C64.4678 36.5324 63.551 37.003 62.6877 37.5451L42.1523 51.3524L67.5942 51.3466Z" fill="#010010" fill-opacity="0.6"/>
</g>
<defs>
<clipPath id="clip0_1865_4335">
<rect width="80" height="80" fill="white"/>
</clipPath>
</defs>
</svg>
