<svg width="113" height="80" viewBox="0 0 113 80" fill="none" xmlns="http://www.w3.org/2000/svg">
<path d="M28.515 43.6534H30.6953V37.7334L33.3275 29.7534H31.2071L29.7248 34.86H29.6849L28.196 29.7534H25.8828L28.515 37.7334V43.6534ZM37.103 43.8534C38.0137 43.9134 38.911 43.58 39.5625 42.94C40.1673 42.22 40.4731 41.3 40.4133 40.36V33.0534C40.4731 32.1134 40.1673 31.1867 39.5625 30.46C38.911 29.82 38.0137 29.4867 37.103 29.5467C36.1924 29.4867 35.3017 29.82 34.6503 30.46C34.0454 31.18 33.733 32.1067 33.7928 33.0467V40.36C33.733 41.3 34.0388 42.22 34.6503 42.94C35.3017 43.58 36.1924 43.9134 37.103 43.8534ZM35.9664 32.9067C35.9664 32 36.3453 31.54 37.1097 31.54C37.8741 31.54 38.253 32 38.253 32.9067V40.4934C38.253 41.4067 37.8741 41.8667 37.1097 41.8667C36.3519 41.8667 35.9664 41.4067 35.9664 40.4934V32.9067ZM45.0463 43.8534C45.9436 43.9134 46.821 43.5867 47.4658 42.9467C48.0574 42.22 48.3565 41.2934 48.29 40.3534V29.7534H46.1896V40.5134C46.2228 40.88 46.1231 41.2534 45.9038 41.5467C45.691 41.7667 45.3919 41.8867 45.0795 41.8667C44.7671 41.8934 44.4547 41.7734 44.2353 41.5467C44.016 41.2467 43.9096 40.88 43.9429 40.5134V29.7534H41.7892V40.36C41.7294 41.3 42.0285 42.2267 42.6201 42.9534C43.2649 43.5867 44.1489 43.9134 45.0463 43.8534ZM52.0124 37.6934H52.7968C53.1889 37.6534 53.5811 37.7934 53.8603 38.0734C54.1062 38.4734 54.2126 38.94 54.166 39.4067V41.9467C54.1461 42.3134 54.1528 42.68 54.1793 43.0467C54.2059 43.2667 54.2591 43.4734 54.3389 43.68H56.559C56.4526 43.4534 56.3862 43.2067 56.3596 42.9534C56.3263 42.6334 56.313 42.3134 56.3197 41.9934V39.5267C56.3463 38.8534 56.2333 38.1867 55.994 37.56C55.7813 37.08 55.3625 36.72 54.8507 36.5867V36.5467C55.8012 36.1667 56.2732 35.2534 56.2732 33.8067V32.9467C56.3463 32.0734 56.0671 31.2067 55.5021 30.5334C54.8175 29.9534 53.9334 29.6734 53.0427 29.7467H49.8322V43.6467H52.0124V37.6934ZM52.0124 31.74H53.0028C53.3219 31.7134 53.6343 31.84 53.847 32.08C54.0464 32.4067 54.1395 32.7867 54.1062 33.1734V34.2467C54.1461 34.6534 54.0331 35.0667 53.7805 35.3934C53.5146 35.6334 53.1623 35.76 52.7968 35.7334H52.0058V31.74H52.0124ZM60.6469 43.8534C61.5509 43.9134 62.4416 43.58 63.0864 42.94C63.6913 42.2067 63.997 41.2734 63.9306 40.32C63.9505 39.5267 63.771 38.74 63.4187 38.0334C62.9202 37.2067 62.2821 36.48 61.5376 35.8734C60.9726 35.4134 60.4807 34.88 60.062 34.2867C59.7895 33.8667 59.6432 33.3734 59.6366 32.8734C59.6366 31.9867 60.0022 31.5467 60.7267 31.5467C61.0325 31.5267 61.3316 31.6467 61.5376 31.8734C61.7503 32.1734 61.85 32.5467 61.8168 32.9134V33.6267H63.8774V33.0534C63.9439 32.12 63.6647 31.2 63.093 30.46C62.4749 29.8267 61.6107 29.4934 60.7267 29.5534C59.8293 29.4934 58.9519 29.82 58.3138 30.46C57.7222 31.1734 57.4231 32.0867 57.4829 33.0134C57.4696 33.7734 57.6558 34.52 58.0213 35.1867C58.5265 35.9934 59.1646 36.72 59.9025 37.32C60.4608 37.7867 60.946 38.3267 61.3515 38.9334C61.6174 39.4 61.757 39.9334 61.7437 40.4734C61.7769 40.8534 61.6772 41.2267 61.4579 41.54C61.2385 41.7734 60.9328 41.8934 60.6137 41.8734C59.8559 41.8734 59.4704 41.42 59.4704 40.52V39.5734H57.443V40.3667C57.3832 41.3 57.669 42.2267 58.254 42.96C58.8788 43.5867 59.7562 43.92 60.6469 43.8534ZM66.8819 43.6534H69.0621V31.74H71.342V29.7534H64.6086V31.74H66.8819V43.6534ZM75.4566 43.8534C76.3672 43.9134 77.2646 43.58 77.916 42.94C78.5209 42.22 78.8266 41.3 78.7668 40.36V33.0534C78.8266 32.1134 78.5209 31.1867 77.916 30.46C76.5068 29.24 74.4196 29.24 73.0105 30.46C72.4056 31.18 72.0932 32.1067 72.153 33.0467V40.36C72.0932 41.3 72.3989 42.22 73.0105 42.94C73.6552 43.58 74.5459 43.9134 75.4566 43.8534ZM74.3133 32.9067C74.3133 32 74.6922 31.54 75.4566 31.54C76.221 31.54 76.5999 32 76.5999 32.9067V40.4934C76.5999 41.4067 76.221 41.8667 75.4566 41.8667C74.6988 41.8667 74.3133 41.4067 74.3133 40.4934V32.9067ZM82.4027 37.6934H83.1539C83.546 37.6534 83.9382 37.7934 84.2174 38.0734C84.4633 38.4734 84.5697 38.94 84.5232 39.4067V41.9467C84.5165 42.3067 84.5298 42.6667 84.563 43.02C84.5896 43.24 84.6428 43.4467 84.7226 43.6534H86.936C86.8363 43.42 86.7699 43.18 86.7433 42.9267C86.71 42.6067 86.6968 42.2867 86.7034 41.9667V39.5267C86.73 38.8534 86.617 38.1867 86.3777 37.56C86.165 37.08 85.7462 36.72 85.2344 36.5867V36.5467C86.1916 36.1667 86.6635 35.2534 86.6569 33.8067V32.9467C86.73 32.0734 86.4508 31.2067 85.8858 30.5334C85.2012 29.9534 84.3171 29.6734 83.4264 29.7467H80.2026V43.6467H82.3828L82.4027 37.6934ZM82.4027 31.74H83.3932C83.7122 31.7134 84.018 31.84 84.2307 32.08C84.4367 32.4067 84.5365 32.7867 84.4966 33.1734V34.2467C84.5365 34.6534 84.4235 35.0667 84.1709 35.3934C83.905 35.6334 83.5527 35.76 83.1871 35.7334H82.3961V31.74H82.4027ZM89.8873 43.6534H92.0676V37.7334L94.6998 29.7534H92.5794L91.0971 34.86H91.0572L89.5683 29.7534H87.2551L89.8873 37.7334V43.6534Z" fill="#010010" fill-opacity="0.6"/>
<path d="M100.681 21.8867H17.5V51.3534H102.961V21.8867H100.681ZM100.681 49.0667H19.7268V24.1734H100.681V49.0667Z" fill="#010010" fill-opacity="0.6"/>
<path d="M94.1936 50.9867C93.8612 50.98 93.5355 50.9 93.243 50.7534V55.9H12.3151V31H18.6564C18.3373 30.2467 18.437 29.38 18.9156 28.7134H10.0352V58.18H95.5163V50.7467C95.0909 50.9067 94.6456 50.9867 94.1936 50.9867Z" fill="#010010" fill-opacity="0.6"/>
<path d="M20.1922 49.9134L11.8169 57.6867L10.2083 56.0734L18.5836 48.3001L20.1922 49.9134ZM19.1021 23.5001L11.6906 30.3401L10.082 28.7267L17.4935 21.8867C17.4935 21.8934 19.1021 23.5001 19.1021 23.5001Z" fill="#010010" fill-opacity="0.6"/>
</svg>
