<svg width="200" height="26" viewBox="0 0 200 26" fill="none" xmlns="http://www.w3.org/2000/svg">
<g clip-path="url(#clip0_1865_4333)">
<path d="M5.2071 21.6098V14.5354H18.2033V10.168H5.2071V4.41295H19.1931V0H0V25.9773H19.7095V21.6098H5.2071Z" fill="#010010" fill-opacity="0.6"/>
<path d="M39.8694 0V17.3561L29.2616 0H24.1836V25.9773H29.0249V9.03062L39.4821 25.9773H44.7323V0H39.8694Z" fill="#010010" fill-opacity="0.6"/>
<path d="M48.4141 0V4.41295H56.1171V25.9773H61.3242V4.41295H68.9843V0H48.4141Z" fill="#010010" fill-opacity="0.6"/>
<path d="M92.5246 20.9274C91.2766 18.8801 90.2868 17.4698 89.5553 16.6964C88.8237 15.9003 87.8985 15.1724 86.7581 14.5354C89.0389 14.1942 90.7602 13.3981 91.8791 12.147C93.0195 10.8504 93.6004 9.25809 93.6004 7.30184C93.6004 5.77778 93.2131 4.41295 92.46 3.20735C91.707 2.04724 90.6741 1.18285 89.4262 0.727909C88.1782 0.227472 86.1556 0 83.4014 0H72.4062V25.9773H77.6134V15.1496H78.6677C79.8941 15.1496 80.7763 15.2406 81.3143 15.4453C81.8737 15.65 82.3901 15.9912 82.885 16.5372C83.3799 17.0604 84.2836 18.357 85.6177 20.3587L89.4046 26H95.6661L92.5246 20.9274ZM81.5079 10.9869H77.6349V4.41295H81.7231C83.8533 4.41295 85.1228 4.4357 85.5316 4.50394C86.3707 4.61767 87.0378 4.98163 87.5111 5.50481C87.9845 6.05074 88.2212 6.7559 88.2212 7.64304C88.2212 8.43919 88.0491 9.07612 87.6618 9.5993C87.3175 10.0997 86.8441 10.4864 86.1986 10.6912C85.5746 10.8731 84.0039 10.9869 81.5079 10.9869Z" fill="#010010" fill-opacity="0.6"/>
<path d="M121.873 26L111.481 0H105.972L95.8594 25.9773H106.618V23.0201C106.618 22.6334 106.876 22.4742 107.134 22.6107C108.146 23.1566 109.135 23.1566 110.168 22.6107C110.469 22.4742 110.685 22.6334 110.685 23.0201V25.9773H121.873V26ZM110.555 20.8136C109.48 21.9055 108.146 22.1102 106.768 20.8364C106.661 20.9501 106.532 21.0411 106.424 21.1776C105.994 21.6098 105.542 22.0875 105.112 22.5197C104.638 22.9519 104.057 22.7244 103.907 22.042C103.885 21.9283 103.885 21.8145 103.842 21.7008C103.649 20.7454 103.455 19.7673 103.261 18.7664V18.175C103.412 17.2196 103.928 16.5372 104.574 16.014C104.681 15.9003 104.81 15.8093 104.896 15.6955C104.983 15.5818 105.069 15.3998 105.069 15.2633C105.09 11.5783 106.231 8.48469 108.619 6.07349C108.64 6.07349 108.64 6.07349 108.64 6.07349C108.64 6.07349 108.64 6.07349 108.662 6.07349C108.92 6.34646 109.221 6.57393 109.458 6.86964C111.244 9.2126 112.234 11.9195 112.191 15.1496C112.191 15.4226 112.277 15.5818 112.449 15.7638C113.116 16.3552 113.783 16.9239 114.02 17.9475V18.9939C113.848 19.9493 113.675 20.9274 113.503 21.8828C113.353 22.7699 112.772 22.9974 112.191 22.4287C111.674 21.9283 111.115 21.3368 110.555 20.8136Z" fill="#010010" fill-opacity="0.6"/>
<path d="M140.807 16.3325C140.377 18.175 139.688 19.5398 138.72 20.3815C137.751 21.2686 136.611 21.678 135.255 21.678C133.427 21.678 131.963 20.9956 130.801 19.6308C129.683 18.3115 129.102 16.0367 129.102 12.8521C129.102 9.84952 129.661 7.71129 130.823 6.34646C131.985 5.02712 133.513 4.34471 135.363 4.34471C136.697 4.34471 137.838 4.73141 138.784 5.48206C139.753 6.25547 140.333 7.30184 140.656 8.59842L145.67 7.39283C145.067 5.39108 144.228 3.82152 143.109 2.75241C141.173 0.909886 138.655 0 135.621 0C132.092 0 129.274 1.16011 127.101 3.48031C124.949 5.80052 123.895 9.05337 123.895 13.2161C123.895 17.1741 124.97 20.3132 127.101 22.5879C129.252 24.8854 131.985 26 135.299 26C137.988 26 140.204 25.3403 141.947 24.021C143.69 22.6562 144.938 20.6317 145.691 17.8793L140.807 16.3325Z" fill="#010010" fill-opacity="0.6"/>
<path d="M163.699 10.1225L173.468 0H166.411L155.867 11.5556V0H150.617V25.9773H155.867V18.1295L160.085 13.8075L167.228 26H173.985L163.699 10.1225Z" fill="#010010" fill-opacity="0.6"/>
<path d="M196.859 20.9274C195.611 18.8801 194.621 17.4698 193.889 16.6964C193.136 15.9003 192.189 15.1724 191.092 14.5354C193.373 14.1942 195.051 13.3981 196.192 12.147C197.353 10.8504 197.913 9.25809 197.913 7.30184C197.913 5.77778 197.526 4.41295 196.773 3.20735C196.041 2.04724 195.03 1.18285 193.76 0.727909C192.512 0.227472 190.49 0 187.735 0H176.719V25.9773H181.969V15.1496H183.023C184.228 15.1496 185.089 15.2406 185.648 15.4453C186.208 15.65 186.724 15.9912 187.219 16.5372C187.714 17.0604 188.639 18.357 189.995 20.3587L193.782 26H200.022L196.859 20.9274ZM185.842 10.9869H181.969V4.41295H186.057C188.187 4.41295 189.435 4.4357 189.866 4.50394C190.705 4.61767 191.35 4.98163 191.824 5.50481C192.297 6.05074 192.534 6.7559 192.534 7.64304C192.534 8.43919 192.362 9.07612 192.017 9.5993C191.673 10.0997 191.178 10.4864 190.554 10.6912C189.887 10.8731 188.338 10.9869 185.842 10.9869Z" fill="#010010" fill-opacity="0.6"/>
</g>
<defs>
<clipPath id="clip0_1865_4333">
<rect width="200" height="26" fill="white"/>
</clipPath>
</defs>
</svg>
