<svg width="96" height="27" viewBox="0 0 96 27" fill="none" xmlns="http://www.w3.org/2000/svg">
<path fill-rule="evenodd" clip-rule="evenodd" d="M53.7201 7.78576C51.0605 7.27704 48.3789 7.01161 46.4886 7.01161C39.7845 7.01161 37.3887 9.82068 37.3887 14.7089V19.1548C37.3887 23.6006 39.0372 26.6309 46.9721 26.6309C49.0823 26.6309 51.6759 26.4318 54.2037 25.9231V21.9638C52.2035 22.3398 50.3571 22.4283 47.4337 22.4283C44.2905 22.4283 42.5321 20.9021 42.5321 18.2258V15.66C42.5321 12.8288 43.9388 11.2142 46.7304 11.2142C47.1919 11.2142 48.1151 11.2142 48.5987 11.3469V14.2444H53.7421V7.78576H53.7201ZM32.2453 14.2444C32.2453 8.95806 29.8494 7.01161 25.4753 7.01161C23.8268 7.01161 22.2222 7.4761 20.3319 8.40509L19.8703 7.47611H13.1003V11.6786H15.9138V22.4283H13.5839V26.6309H23.3872V22.4283H21.0572V11.6786C22.1123 11.3026 23.1674 11.192 24.3763 11.192C27.3876 11.192 27.1458 13.8242 27.1458 15.6379V26.6087H35.0807V22.4062H32.2672V14.2444H32.2453ZM7.95691 22.4062H10.7704V26.6087H0V22.4062H2.81349V4.20254H0.483568V0H10.2868V4.20254H7.95691V22.4062Z" fill="#010010" fill-opacity="0.6"/>
<path fill-rule="evenodd" clip-rule="evenodd" d="M90.6243 8.86894C90.6243 6.9225 89.921 4.20191 86.6459 4.20191C83.1949 4.20191 81.6124 7.54182 82.6674 11.2135H78.0735C77.7218 10.1739 77.524 7.25428 78.623 4.93182C79.8539 2.36606 82.7553 0.0214844 86.5799 0.0214844H77.0624H69.1275L59.3242 14.7304V21.0342H69.8309V16.8317H64.2259L72.4026 4.22403H72.6443V26.6302H77.0844C77.0844 18.3357 81.9201 15.6594 86.4261 13.7572C88.9099 12.7176 90.6243 11.4347 90.6243 8.86894ZM95.2842 8.64776V22.4277H83.6126C83.6126 20.0831 85.7886 19.685 88.5142 18.2251C92.0091 16.3229 95.2842 14.0005 95.2842 8.64776Z" fill="#010010" fill-opacity="0.6"/>
</svg>
