<?xml version="1.0" encoding="UTF-8"?>
<svg id="Layer_1" xmlns="http://www.w3.org/2000/svg" version="1.1" viewBox="0 0 250 50">
  <!-- Generator: Adobe Illustrator 30.0.0, SVG Export Plug-In . SVG Version: 2.1.1 Build 123)  -->
  <defs>
    <style>
      .st0 {
        fill: #101820;
      }

      .st1 {
        fill: #425563;
      }

      .st2 {
        fill: #fff;
      }

      .st3 {
        fill: #0082ba;
      }
    </style>
  </defs>
  <g>
    <path class="st3" d="M25,50h0c-13.8,0-25-11.2-25-25h0C0,11.2,11.2,0,25,0h25v25c0,13.8-11.2,25-25,25Z"/>
    <path class="st2" d="M33.5,19.5h-3v-3.1c0-2.1-1.7-3.9-3.9-3.9h-3.3c-2.1,0-3.9,1.7-3.9,3.9v3.1h-3c-2.2,0-4,1.8-4,4v3.2c0,2.2,1.8,4,4,4h3v3.1c0,2.1,1.7,3.9,3.9,3.9h3.3c2.1,0,3.9-1.7,3.9-3.9v-3.1h3c2.2,0,4-1.8,4-4v-3.2c0-2.2-1.8-4-4-4Z"/>
  </g>
  <g>
    <path class="st3" d="M60,25.6V1.6h5v9.7h9.9V1.6h5v24h-5v-10.9h-9.9v10.9h-5Z"/>
    <path class="st3" d="M100.3,25c-2.3.7-4.4,1-6.4,1s-3.6-.4-5-1.1-2.6-1.8-3.3-3.4c-.8-1.5-1.2-3.2-1.2-5s.3-3.2,1-4.6c.7-1.4,1.6-2.5,2.9-3.3,1.3-.8,2.8-1.2,4.7-1.2s4.1.7,5.4,2.2c1.4,1.4,2,4.1,2,8.1h-10.9c.1,1.2.4,2.1.8,2.8.4.7,1,1.2,1.8,1.6.7.4,1.7.6,3,.6s3.4-.4,5.4-1.1v3.4ZM89.3,14.9h6.3c0-1.6-.3-2.8-.8-3.5-.5-.7-1.2-1.1-2.1-1.1s-1.7.4-2.3,1.2c-.6.8-1,1.9-1.1,3.4Z"/>
    <path class="st3" d="M103.5,25.6l6.1-8.9-5.9-8.8h5.5l3.8,5.6,3.7-5.6h3.9l-5.6,8.7,6,9h-5.5l-4-5.9-4.1,5.9h-4Z"/>
    <path class="st3" d="M133.8,23.7c-.7.7-1.3,1.1-1.8,1.4-.5.3-1,.5-1.6.7-.6.1-1.1.2-1.7.2-1.6,0-2.9-.5-3.8-1.5-1-1-1.4-2.2-1.4-3.6s.7-3.2,2.1-4.4,3.7-1.8,7-1.8h1.3v-1.6c0-1.1-.3-1.8-.9-2.2-.6-.4-1.4-.6-2.3-.6-1.8,0-3.7.5-5.6,1.6v-3.3c2.2-.8,4.3-1.2,6.5-1.2s2.5.2,3.5.5c1,.4,1.9.9,2.5,1.7s.9,1.9.9,3.4v7.9c0,1,.1,1.5.4,1.8.3.2.6.3.9.3s.4,0,.6,0v2.7c-.9.3-1.8.5-2.6.5s-1.6-.1-2.3-.4-1.1-.9-1.5-1.9h-.2ZM133.8,21.1v-3.6h-1.1c-1.6,0-2.7.3-3.5.8-.8.6-1.1,1.3-1.1,2.1s.2,1.2.7,1.7c.5.4,1,.7,1.6.7s1.1-.1,1.7-.4c.6-.3,1.2-.7,1.7-1.2Z"/>
    <path class="st0" d="M144.7,25.6V1.6h5v9.7h9.9V1.6h5v24h-5v-10.9h-9.9v10.9h-5Z"/>
    <path class="st0" d="M185,25c-2.3.7-4.4,1-6.4,1s-3.6-.4-5-1.1-2.6-1.8-3.3-3.4c-.8-1.5-1.2-3.2-1.2-5s.3-3.2,1-4.6c.7-1.4,1.6-2.5,2.9-3.3,1.3-.8,2.8-1.2,4.7-1.2s4.1.7,5.4,2.2c1.4,1.4,2,4.1,2,8.1h-10.9c.1,1.2.4,2.1.8,2.8.4.7,1,1.2,1.8,1.6.7.4,1.7.6,3,.6s3.4-.4,5.4-1.1v3.4ZM174,14.9h6.3c0-1.6-.3-2.8-.8-3.5-.5-.7-1.2-1.1-2.1-1.1s-1.7.4-2.3,1.2c-.6.8-1,1.9-1.1,3.4Z"/>
    <path class="st0" d="M198.8,23.7c-.7.7-1.3,1.1-1.8,1.4-.5.3-1,.5-1.6.7-.6.1-1.1.2-1.7.2-1.6,0-2.9-.5-3.8-1.5-1-1-1.4-2.2-1.4-3.6s.7-3.2,2.1-4.4,3.7-1.8,7-1.8h1.3v-1.6c0-1.1-.3-1.8-.9-2.2-.6-.4-1.4-.6-2.3-.6-1.8,0-3.7.5-5.6,1.6v-3.3c2.2-.8,4.3-1.2,6.5-1.2s2.5.2,3.5.5c1,.4,1.9.9,2.5,1.7s.9,1.9.9,3.4v7.9c0,1,.1,1.5.4,1.8.3.2.6.3.9.3s.4,0,.6,0v2.7c-.9.3-1.8.5-2.6.5s-1.6-.1-2.3-.4-1.1-.9-1.5-1.9h-.2ZM198.8,21.1v-3.6h-1.1c-1.6,0-2.7.3-3.5.8-.8.6-1.1,1.3-1.1,2.1s.2,1.2.7,1.7c.5.4,1,.7,1.6.7s1.1-.1,1.7-.4c.6-.3,1.2-.7,1.7-1.2Z"/>
    <path class="st0" d="M209.7,25.6V0h4.8v25.6h-4.8Z"/>
    <path class="st0" d="M229.7,25.5c-1.1.3-2,.5-2.7.5-1.6,0-2.8-.2-3.6-.7-.9-.4-1.5-1-1.9-1.8-.4-.8-.6-1.9-.6-3.4v-9.4h-2v-3h2v-3l4.8-.6v3.5h3.8v3h-3.8v8.7c0,1.3.2,2.1.7,2.6.5.4,1.1.7,2,.7s.9,0,1.5-.2v2.9Z"/>
    <path class="st0" d="M234,25.6V0h4.8v11.1c.9-1.4,1.8-2.3,2.9-2.9,1-.6,2.1-.8,3.2-.8s2.6.5,3.6,1.4,1.5,2.3,1.5,4.3v12.6h-4.8v-11.4c0-1,0-1.6-.3-2-.2-.3-.4-.6-.7-.8-.3-.2-.7-.3-1-.3-.7,0-1.3.2-2.1.7-.7.4-1.5,1.3-2.3,2.6v11.2h-4.8Z"/>
  </g>
  <g>
    <path class="st1" d="M63.2,38.5h-3.2v-1.2h7.8v1.2h-3.2v8.7h-1.5v-8.7Z"/>
    <path class="st1" d="M70.5,36.7v4.2c.4-.6,1-1.2,2.2-1.2s2.4.7,2.4,2.8v4.6h-1.4v-4.4c0-1.2-.5-1.8-1.5-1.8s-1.8.9-1.8,2.3v3.9h-1.4v-10.5h1.4Z"/>
    <path class="st1" d="M78.3,43.8c0,1.4.7,2.4,1.9,2.4s1.4-.5,1.7-1.1h1.4c-.3.9-1.1,2.2-3.1,2.2s-3.3-1.8-3.3-3.7,1.1-3.9,3.3-3.9,3.2,1.9,3.2,3.5,0,.4,0,.6h-5.1ZM82,42.8c0-1.1-.6-2-1.8-2s-1.7.8-1.9,2h3.6Z"/>
    <path class="st1" d="M89,47.2v-9.9h1.9c1.4,2.3,4.3,7.1,4.9,8.1h0c0-1.2,0-2.8,0-4.4v-3.7h1.4v9.9h-1.8c-1.3-2.1-4.4-7.3-5-8.4h0c0,1.1,0,2.8,0,4.6v3.8h-1.4Z"/>
    <path class="st1" d="M100.4,43.8c0,1.4.7,2.4,1.9,2.4s1.4-.5,1.7-1.1h1.4c-.3.9-1.1,2.2-3.1,2.2s-3.3-1.8-3.3-3.7,1.1-3.9,3.3-3.9,3.2,1.9,3.2,3.5,0,.4,0,.6h-5.1ZM104,42.8c0-1.1-.6-2-1.8-2s-1.7.8-1.9,2h3.6Z"/>
    <path class="st1" d="M107.8,39.9c1,1.6,1.4,2.2,1.6,2.6h0c.3-.5.9-1.4,1.7-2.6h1.6l-2.4,3.5,2.5,3.8h-1.6c-.8-1.4-1.4-2.3-1.7-2.8h0c-.2.4-.8,1.4-1.7,2.8h-1.6l2.4-3.6-2.3-3.7h1.6Z"/>
    <path class="st1" d="M113.4,39.9h1.2v-2.1h1.4v2.1h1.6v1.1h-1.6v4.1c0,.7.2,1,.8,1s.4,0,.6,0v1c-.3.1-.8.1-1.1.1-1.2,0-1.7-.6-1.7-1.8v-4.4h-1.2v-1.1Z"/>
    <path class="st1" d="M131.2,47.2h-1.1c0-.2-.1-.6-.1-1.3-.5.7-1.3,1.4-3,1.4-2.9,0-4.4-2.2-4.4-5s1.6-5.2,4.7-5.2,3.8,1.3,4.1,3h-1.5c-.3-1-1.1-1.8-2.6-1.8-2.3,0-3.1,1.8-3.1,3.9s.9,3.8,3.1,3.8,2.7-1.4,2.7-3h0c0-.1-2.7-.1-2.7-.1v-1.2h4.1v5.4Z"/>
    <path class="st1" d="M134.4,43.8c0,1.4.7,2.4,1.9,2.4s1.4-.5,1.7-1.1h1.4c-.3.9-1.1,2.2-3.1,2.2s-3.3-1.8-3.3-3.7,1.1-3.9,3.3-3.9,3.2,1.9,3.2,3.5,0,.4,0,.6h-5.1ZM138.1,42.8c0-1.1-.6-2-1.8-2s-1.7.8-1.9,2h3.6Z"/>
    <path class="st1" d="M141.2,41.7c0-.6,0-1.3,0-1.8h1.4c0,.2,0,.9,0,1.1.3-.6.9-1.3,2.3-1.3s2.4.9,2.4,2.8v4.7h-1.4v-4.5c0-1-.4-1.8-1.5-1.8s-1.8.9-1.8,2.4v3.9h-1.4v-5.4Z"/>
    <path class="st1" d="M150.4,43.8c0,1.4.7,2.4,1.9,2.4s1.4-.5,1.7-1.1h1.4c-.3.9-1.1,2.2-3.1,2.2s-3.3-1.8-3.3-3.7,1.1-3.9,3.3-3.9,3.2,1.9,3.2,3.5,0,.4,0,.6h-5.1ZM154.1,42.8c0-1.1-.6-2-1.8-2s-1.7.8-1.9,2h3.6Z"/>
    <path class="st1" d="M157.2,41.9c0-1,0-1.5,0-2h1.4c0,.2,0,.8,0,1.4.4-1,1.2-1.6,2.4-1.6v1.4c-1.5,0-2.4.7-2.4,2.6v3.5h-1.4v-5.3Z"/>
    <path class="st1" d="M167.8,45.5c0,.7,0,1.4,0,1.6h-1.3c0-.2,0-.5-.1-.9-.3.5-.8,1.1-2.2,1.1s-2.5-1.1-2.5-2.2c0-1.6,1.3-2.4,3.4-2.4h1.2v-.6c0-.6-.2-1.3-1.5-1.3s-1.3.6-1.5,1.1h-1.3c0-1.1.8-2.2,2.9-2.2,1.8,0,2.8.7,2.8,2.4v3.4ZM166.4,43.7h-1.1c-1.4,0-2.1.4-2.1,1.4s.5,1.2,1.3,1.2c1.7,0,1.9-1.1,1.9-2.4v-.2Z"/>
    <path class="st1" d="M169,39.9h1.2v-2.1h1.4v2.1h1.6v1.1h-1.6v4.1c0,.7.2,1,.8,1s.4,0,.6,0v1c-.3.1-.8.1-1.1.1-1.2,0-1.7-.6-1.7-1.8v-4.4h-1.2v-1.1Z"/>
    <path class="st1" d="M174.6,36.7h1.4v1.6h-1.4v-1.6ZM174.6,39.9h1.4v7.3h-1.4v-7.3Z"/>
    <path class="st1" d="M184.6,43.5c0,2.1-1.2,3.8-3.5,3.8s-3.4-1.6-3.4-3.8,1.3-3.8,3.5-3.8,3.4,1.5,3.4,3.8ZM179.2,43.5c0,1.6.8,2.7,2,2.7s2-1,2-2.6-.7-2.7-2-2.7-2,1-2,2.7Z"/>
    <path class="st1" d="M186.3,41.7c0-.6,0-1.3,0-1.8h1.4c0,.2,0,.9,0,1.1.3-.6.9-1.3,2.3-1.3s2.4.9,2.4,2.8v4.7h-1.4v-4.5c0-1-.4-1.8-1.5-1.8s-1.8.9-1.8,2.4v3.9h-1.4v-5.4Z"/>
    <path class="st1" d="M198.6,37.2h1.5v4.1h4.9v-4.1h1.5v9.9h-1.5v-4.6h-4.9v4.6h-1.5v-9.9Z"/>
    <path class="st1" d="M215.2,43.5c0,2.1-1.2,3.8-3.5,3.8s-3.4-1.6-3.4-3.8,1.3-3.8,3.5-3.8,3.4,1.5,3.4,3.8ZM209.8,43.5c0,1.6.8,2.7,2,2.7s2-1,2-2.6-.7-2.7-2-2.7-2,1-2,2.7Z"/>
    <path class="st1" d="M217.8,45.1c.2.8.8,1.2,1.7,1.2s1.4-.4,1.4-1-.3-.9-1.6-1.2c-2.1-.5-2.6-1.2-2.6-2.2s.8-2.1,2.7-2.1,2.7,1.1,2.8,2.1h-1.3c0-.4-.4-1.1-1.5-1.1s-1.2.5-1.2.9.3.8,1.6,1.1c2.2.5,2.7,1.3,2.7,2.4s-1,2.2-2.9,2.2-2.9-1-3-2.3h1.4Z"/>
    <path class="st1" d="M225.4,46.3v3.7h-1.4v-8.3c0-.6,0-1.2,0-1.8h1.4c0,.2,0,.7,0,1.1.4-.7,1.1-1.3,2.3-1.3s2.9,1.4,2.9,3.6-1.4,4-3.2,4-1.7-.5-2.1-1ZM229.2,43.4c0-1.5-.7-2.5-1.9-2.5s-2,.9-2,2.6.5,2.6,1.9,2.6,1.9-1,1.9-2.8Z"/>
    <path class="st1" d="M232.4,36.7h1.4v1.6h-1.4v-1.6ZM232.4,39.9h1.4v7.3h-1.4v-7.3Z"/>
    <path class="st1" d="M235.2,39.9h1.2v-2.1h1.4v2.1h1.6v1.1h-1.6v4.1c0,.7.2,1,.8,1s.4,0,.6,0v1c-.3.1-.8.1-1.1.1-1.2,0-1.7-.6-1.7-1.8v-4.4h-1.2v-1.1Z"/>
    <path class="st1" d="M246.4,45.5c0,.7,0,1.4,0,1.6h-1.3c0-.2,0-.5-.1-.9-.3.5-.8,1.1-2.2,1.1s-2.5-1.1-2.5-2.2c0-1.6,1.3-2.4,3.4-2.4h1.2v-.6c0-.6-.2-1.3-1.5-1.3s-1.3.6-1.5,1.1h-1.3c0-1.1.8-2.2,2.9-2.2,1.8,0,2.8.7,2.8,2.4v3.4ZM245,43.7h-1.1c-1.4,0-2.1.4-2.1,1.4s.5,1.2,1.3,1.2c1.7,0,1.9-1.1,1.9-2.4v-.2Z"/>
    <path class="st1" d="M248.6,47.2v-10.5h1.4v10.5h-1.4Z"/>
  </g>
</svg>